<?xml version="1.0" standalone="no"?>
<!DOCTYPE svg PUBLIC "-//W3C//DTD SVG 20010904//EN"
 "http://www.w3.org/TR/2001/REC-SVG-20010904/DTD/svg10.dtd">
<svg version="1.0" xmlns="http://www.w3.org/2000/svg"
 width="700.000000pt" height="700.000000pt" viewBox="0 0 700.000000 700.000000"
 preserveAspectRatio="xMidYMid meet">
<metadata>
Created by potrace 1.14, written by Peter Selinger 2001-2017
</metadata>
<g transform="translate(0.000000,700.000000) scale(0.100000,-0.100000)"
fill="#000000" stroke="none">
<path d="M3328 6944 c-2 -1 -46 -5 -98 -8 -52 -4 -111 -9 -130 -11 -19 -2 -55
-7 -80 -10 -77 -10 -261 -45 -345 -67 -44 -11 -87 -21 -95 -23 -80 -18 -329
-106 -455 -162 -120 -53 -345 -170 -408 -212 -25 -17 -47 -31 -50 -31 -14 0
-263 -180 -357 -259 -500 -418 -870 -949 -1072 -1541 -47 -138 -40 -114 -83
-285 -52 -209 -75 -356 -91 -570 -13 -176 -6 -627 11 -655 2 -3 6 -32 9 -65 3
-33 8 -71 11 -85 3 -14 7 -43 10 -65 3 -22 7 -47 10 -55 2 -8 7 -31 10 -50 12
-68 56 -242 94 -368 69 -229 169 -464 280 -656 28 -49 51 -90 51 -92 0 -7 150
-226 204 -297 135 -180 325 -377 511 -532 107 -89 304 -232 375 -273 19 -11
78 -44 130 -74 321 -183 707 -317 1125 -392 80 -14 113 -19 230 -31 231 -26
520 -26 745 -1 425 48 796 158 1184 353 83 41 170 88 194 104 24 16 45 29 48
29 3 0 46 28 97 62 525 351 913 788 1188 1338 146 292 279 694 314 950 3 25 8
52 10 60 2 8 7 38 10 65 3 28 7 60 9 72 19 95 27 518 13 658 -4 39 -9 90 -12
115 -2 25 -7 68 -11 95 -4 28 -8 57 -9 65 -2 17 -15 95 -21 125 -3 11 -7 36
-10 55 -11 65 -74 304 -110 415 -115 351 -283 676 -505 970 -37 50 -75 99 -86
110 -10 11 -38 45 -63 74 -25 30 -88 99 -141 152 -375 377 -834 659 -1334 821
-121 39 -406 112 -480 122 -22 4 -65 11 -95 16 -30 5 -75 12 -100 15 -25 3
-56 8 -70 10 -87 13 -551 29 -562 19z m455 -545 c29 -4 77 -10 107 -14 243
-25 619 -128 850 -232 340 -153 644 -367 889 -627 25 -27 53 -57 62 -66 124
-130 303 -395 400 -590 84 -170 164 -368 154 -379 -3 -3 -22 12 -43 31 -49 48
-114 109 -263 248 -67 63 -145 137 -173 163 -28 27 -91 86 -141 132 -49 45
-110 102 -135 126 -25 24 -109 103 -185 175 -77 72 -167 157 -200 188 -129
123 -245 157 -376 111 -55 -20 -80 -39 -274 -214 -88 -79 -178 -160 -200 -180
-22 -20 -76 -67 -120 -106 -44 -38 -82 -72 -85 -75 -3 -3 -41 -37 -85 -75 -44
-39 -82 -72 -85 -75 -3 -3 -41 -36 -85 -75 -44 -38 -85 -74 -91 -80 -6 -5 -35
-30 -64 -55 -29 -25 -58 -49 -64 -55 -53 -47 -54 -48 -76 -32 -11 8 -37 29
-58 48 -20 19 -53 47 -72 63 -19 16 -66 57 -105 91 -38 35 -81 73 -95 85 -47
41 -154 135 -255 224 -170 151 -247 219 -294 261 -25 22 -59 53 -76 69 -79 75
-169 148 -206 167 -23 11 -72 24 -110 28 -107 11 -184 -21 -295 -125 -23 -22
-93 -86 -154 -144 -62 -58 -122 -113 -133 -122 -10 -10 -72 -66 -136 -125 -64
-59 -145 -135 -181 -168 -35 -33 -72 -67 -80 -75 -8 -8 -45 -42 -80 -75 -147
-135 -318 -293 -367 -339 -29 -27 -53 -46 -53 -43 0 40 143 352 228 497 191
328 418 586 755 856 162 130 503 320 722 402 166 61 376 122 475 137 25 4 47
8 50 10 6 3 64 12 200 30 105 13 521 16 603 4z m-1518 -1377 c28 -26 100 -92
160 -146 61 -54 128 -115 150 -135 39 -35 154 -136 224 -197 18 -16 45 -40 60
-54 188 -174 473 -404 548 -441 57 -29 70 -31 128 -27 50 5 78 13 121 39 55
34 247 186 367 292 34 30 125 110 202 177 77 68 158 139 180 159 134 120 224
201 248 222 16 13 43 38 61 54 70 66 115 105 121 105 4 0 12 -6 19 -12 28 -28
279 -263 296 -278 11 -9 81 -75 156 -146 76 -71 149 -140 164 -154 15 -14 85
-79 156 -146 71 -67 143 -133 159 -148 17 -15 57 -53 90 -85 33 -31 129 -121
212 -199 84 -78 152 -142 150 -143 -7 -3 -5416 -3 -5434 0 -19 3 -15 8 30 49
29 25 75 67 102 93 28 26 64 60 80 75 17 15 83 77 149 138 65 61 126 118 136
126 9 8 66 60 125 115 59 55 121 113 139 129 17 16 82 76 145 135 63 58 119
111 125 116 42 38 260 239 305 282 31 29 61 53 66 53 6 0 33 -22 60 -48z m966
-1812 c1 -20 1 -2582 0 -2598 -2 -30 -385 37 -636 113 -318 96 -662 269 -880
441 -16 14 -35 28 -40 32 -55 40 -200 170 -281 254 -256 261 -455 569 -592
913 -50 126 -128 385 -146 490 -3 17 -8 41 -11 55 -8 42 -23 129 -30 185 -9
66 -13 119 -10 125 2 3 593 5 1314 5 1159 0 1311 -2 1312 -15z m3152 11 c20
-1 20 0 1 -136 -23 -170 -106 -494 -153 -600 -5 -11 -26 -62 -47 -114 -54
-133 -159 -331 -248 -467 -42 -63 -81 -121 -86 -127 -5 -7 -42 -52 -82 -102
-133 -166 -268 -302 -449 -450 -239 -197 -577 -380 -901 -489 -80 -27 -282
-81 -333 -90 -164 -28 -208 -35 -257 -40 -51 -6 -58 -5 -59 11 -1 10 -2 598
-2 1306 -2 981 1 1290 10 1295 9 5 2507 8 2606 3z"/>
</g>
</svg>
