<svg width="117" height="147" viewBox="0 0 117 147" fill="none" xmlns="http://www.w3.org/2000/svg">
  <title>Livro em cima de formas geométricas coloridas</title>
  <path
    d="M59.7264 95.4478H98.4527C99.0844 95.448 99.7027 95.6315 100.233 95.9763C100.764 96.3211 101.185 96.8126 101.446 97.3919C101.706 97.9713 101.796 98.6141 101.703 99.2432C101.61 99.8724 101.339 100.461 100.923 100.939L82.7169 121.828L62.1966 145.364C61.8878 145.717 61.5079 146 61.0819 146.194C60.656 146.388 60.1939 146.489 59.7264 146.489C59.2589 146.489 58.7968 146.388 58.3709 146.194C57.945 146 57.565 145.717 57.2562 145.364L36.7359 121.828L18.5299 100.939C18.1141 100.462 17.8434 99.8742 17.7503 99.2461C17.6571 98.618 17.7454 97.9762 18.0046 97.3972C18.2638 96.8183 18.683 96.3266 19.2121 95.981C19.7412 95.6353 20.3579 95.4502 20.9886 95.4478H59.7264Z"
    fill="#5C9DFF" />
  <path
    d="M59.8649 77.8309C75.9585 77.8309 89.0049 64.6944 89.0049 48.4897C89.0049 32.2849 75.9585 19.1484 59.8649 19.1484C43.7714 19.1484 30.725 32.2849 30.725 48.4897C30.725 64.6944 43.7714 77.8309 59.8649 77.8309Z"
    fill="#FF5E33" />
  <path
    d="M92.6149 2.24337V22.7863C92.6149 23.2487 92.7974 23.6921 93.1221 24.0191C93.4468 24.346 93.8872 24.5297 94.3464 24.5297H114.748C114.988 24.5304 115.224 24.4812 115.444 24.3852C115.663 24.2892 115.861 24.1484 116.023 23.9718C116.186 23.7951 116.311 23.5864 116.389 23.3589C116.468 23.1314 116.499 22.8899 116.48 22.6497C116.032 16.9253 113.571 11.5496 109.538 7.48926C105.506 3.42898 100.167 0.950638 94.482 0.499987C94.2435 0.481115 94.0037 0.512222 93.7777 0.591345C93.5517 0.670468 93.3445 0.795891 93.169 0.9597C92.9936 1.12351 92.8538 1.32215 92.7584 1.54309C92.6631 1.76403 92.6142 2.00247 92.6149 2.24337Z"
    fill="#3CD3B6" />
  <path fill-rule="evenodd" clip-rule="evenodd"
    d="M58.3903 55.3964C57.988 55.3971 57.6024 55.5584 57.3179 55.8449C57.0334 56.1313 56.8732 56.5196 56.8724 56.9247V106.515C56.8895 106.909 57.0567 107.28 57.3392 107.553C57.6217 107.825 57.9978 107.977 58.3889 107.977C58.78 107.977 59.156 107.825 59.4385 107.553C59.7211 107.28 59.8883 106.909 59.9053 106.515V56.9247C59.9046 56.5201 59.7448 56.1323 59.4609 55.8459C59.1771 55.5595 58.7922 55.3979 58.3903 55.3964Z"
    fill="black" />
  <path
    d="M58.3903 44.4101C79.7446 30.832 99.0039 31.1371 116.278 50.974V123.298C104.158 135.354 96.73 99.8005 58.3903 125.132C21.8687 100.411 11.8668 134.741 0.5 123.298V50.974C17.7768 31.1371 36.86 30.678 58.3903 44.4101ZM58.3903 47.464C38.3866 34.3392 19.8978 32.6626 3.07406 51.8893V122.247C9.74295 128.197 29.2937 98.1297 58.3903 122.093C85.6661 98.4406 107.491 127.738 113.704 122.247V51.8893C96.73 32.6597 78.3941 34.3392 58.3903 47.464Z"
    fill="black" />
</svg>
