<svg width="142" height="133" viewBox="0 0 142 133" fill="none" xmlns="http://www.w3.org/2000/svg">
  <title>Balões de diálogo em cima de formas geométricas coloridas</title>
  <path
    d="M112.029 27.5C104.44 27.5001 97.1412 30.4619 91.6446 35.772C86.148 41.0821 82.8743 48.3338 82.5013 56.0257C82.4931 56.2163 82.5231 56.4067 82.5894 56.5852C82.6557 56.7638 82.757 56.9269 82.8871 57.0647C83.0173 57.2025 83.1735 57.3121 83.3465 57.3869C83.5196 57.4617 83.7057 57.5002 83.8938 57.5H139.223C139.536 57.5006 139.845 57.4356 140.132 57.3091C140.42 57.1826 140.678 56.9973 140.891 56.7648C141.104 56.5323 141.268 56.2577 141.371 55.9581C141.475 55.6585 141.517 55.3404 141.494 55.0237C140.881 47.5215 137.511 40.5274 132.053 35.429C126.595 30.3306 119.447 27.5004 112.029 27.5Z"
    fill="#3CD3B6" />
  <path
    d="M35 69.5C54.0538 69.5 69.5 54.0538 69.5 35C69.5 15.9462 54.0538 0.5 35 0.5C15.9462 0.5 0.5 15.9462 0.5 35C0.5 54.0538 15.9462 69.5 35 69.5Z"
    fill="#5C9DFF" />
  <path
    d="M134.42 76.5L86.582 76.5C86.0461 76.4994 85.5154 76.6045 85.0202 76.809C84.525 77.0136 84.075 77.3138 83.6959 77.6923C83.3168 78.0709 83.0161 78.5204 82.8109 79.0152C82.6057 79.51 82.5001 80.0404 82.5001 80.576L82.5001 128.396C82.4968 128.959 82.61 129.516 82.8324 130.033C83.0549 130.549 83.3819 131.014 83.7928 131.399C84.2037 131.783 84.6897 132.079 85.2202 132.266C85.7507 132.454 86.3144 132.53 86.8757 132.489C100.221 131.448 112.756 125.675 122.219 116.211C131.683 106.747 137.453 94.2149 138.489 80.874C138.53 80.3149 138.455 79.7534 138.269 79.2245C138.083 78.6957 137.79 78.2109 137.408 77.8004C137.027 77.3899 136.564 77.0625 136.05 76.8388C135.536 76.615 134.981 76.4997 134.42 76.5Z"
    fill="#FF5E33" />
  <path
    d="M44.1336 57.9254C43.4824 57.9254 42.8457 58.1198 42.3042 58.4842C41.7627 58.8485 41.3406 59.3664 41.0914 59.9722C40.8421 60.5781 40.7769 61.2448 40.904 61.888C41.031 62.5312 41.3447 63.122 41.8052 63.5857C42.2657 64.0494 42.8525 64.3652 43.4912 64.4932C44.13 64.6211 44.7921 64.5554 45.3938 64.3045C45.9955 64.0535 46.5098 63.6285 46.8716 63.0833C47.2335 62.538 47.4266 61.8969 47.4266 61.2411C47.4258 60.362 47.0787 59.519 46.4613 58.8974C45.8439 58.2757 45.0068 57.9261 44.1336 57.9254Z"
    fill="black" />
  <path
    d="M115.612 25.4682C106.856 18.3085 95.2612 14.3755 82.9333 14.3755H82.6226C72.2819 14.43 62.557 17.2003 54.4772 22.3936C54.1551 22.6005 53.9013 22.8989 53.7478 23.2511C53.5943 23.6034 53.5481 23.9935 53.615 24.3722C53.6818 24.7509 53.8588 25.1011 54.1234 25.3785C54.388 25.6559 54.7284 25.848 55.1016 25.9304C55.2384 25.96 55.3779 25.9754 55.5178 25.9763C55.8859 25.9768 56.2463 25.8701 56.5556 25.6692C64.0909 20.8175 73.2142 18.2539 82.9333 18.2539C94.3204 18.2539 104.995 21.8281 112.992 28.3218C120.989 34.8155 125.371 43.3934 125.371 52.511C125.371 65.1712 117.402 75.9338 103.512 82.04C103.079 82.2338 102.732 82.5819 102.539 83.0175C102.345 83.4531 102.318 83.9454 102.463 84.3998L104.362 90.6208L104.932 92.4552L103.15 91.7145L91.8713 86.9691C91.6422 86.8706 91.3963 86.8179 91.1472 86.8141H82.9333C78.5996 86.8294 74.281 86.299 70.078 85.2352L68.3161 84.7816L69.7416 83.6534C77.1914 77.7969 81.294 69.8563 81.294 61.2957C81.294 53.0019 77.408 45.2365 70.3574 39.4375C63.3068 33.6385 54.0153 30.4777 44.1279 30.4777C34.2405 30.4777 24.9177 33.6586 17.8984 39.4375C10.8792 45.2164 6.9476 53.0019 6.9476 61.2957C6.9476 71.7913 13.2427 81.0725 24.2163 86.7567L24.8806 87.1012L24.6639 87.8217L22.4145 95.2284C22.3242 95.5191 22.3031 95.8271 22.3528 96.1276C22.4025 96.428 22.5216 96.7125 22.7005 96.9581C22.8795 97.2036 23.1133 97.4034 23.383 97.5413C23.6527 97.6792 23.9509 97.7513 24.2534 97.7518C24.5112 97.7522 24.7664 97.6995 25.0032 97.5968L37.8328 92.1853L37.9982 92.1136H44.1336C50.9011 92.1488 57.5828 90.5874 63.6432 87.5548L63.9854 87.3768L64.3475 87.5088C70.318 89.6457 76.6112 90.7238 82.9476 90.6954H90.7765L90.9419 90.7643L107.193 97.5968C107.431 97.6969 107.687 97.7486 107.945 97.7489C108.247 97.7492 108.545 97.678 108.815 97.5409C109.084 97.4039 109.318 97.2049 109.497 96.9601C109.676 96.7153 109.795 96.4315 109.845 96.1316C109.895 95.8318 109.874 95.5244 109.784 95.2341L106.788 85.3816L106.571 84.6524L107.25 84.3136C113.884 80.9893 119.401 76.4276 123.173 71.131C127.187 65.5014 129.223 59.2402 129.223 52.5197C129.223 42.2537 124.39 32.6624 115.612 25.4682ZM44.1336 88.2351H37.5991C37.3397 88.2345 37.0828 88.2863 36.8435 88.3873L29.046 91.6715L27.2897 92.4093L27.8599 90.5777L29.0003 86.8055C29.1359 86.3546 29.1039 85.8694 28.9103 85.4405C28.7167 85.0115 28.3748 84.6682 27.9483 84.4744C17.0488 79.6773 10.8022 71.2257 10.8022 61.2957C10.8022 46.6001 25.428 34.6145 43.5321 34.3619H44.1336C62.5057 34.3619 77.4537 46.4479 77.4537 61.3014C77.4537 76.1549 62.4914 88.2351 44.1336 88.2351Z"
    fill="black" />
  <path
    d="M29.274 57.9254C28.6226 57.9248 27.9857 58.1188 27.4438 58.4828C26.9019 58.8468 26.4794 59.3644 26.2297 59.9702C25.98 60.5761 25.9144 61.2428 26.0412 61.8862C26.1679 62.5296 26.4813 63.1207 26.9417 63.5847C27.4021 64.0487 27.9889 64.3648 28.6277 64.493C29.2666 64.6211 29.9288 64.5556 30.5307 64.3048C31.1326 64.0539 31.647 63.6289 32.009 63.0836C32.3709 62.5382 32.5641 61.897 32.5641 61.2411C32.5574 60.3643 32.2087 59.5253 31.5933 58.905C30.9778 58.2847 30.1448 57.9329 29.274 57.9254Z"
    fill="black" />
  <path
    d="M58.959 57.9254C58.3077 57.9254 57.6711 58.1198 57.1296 58.4842C56.588 58.8485 56.166 59.3664 55.9167 59.9722C55.6675 60.5781 55.6023 61.2448 55.7294 61.888C55.8564 62.5312 56.17 63.122 56.6306 63.5857C57.0911 64.0494 57.6778 64.3652 58.3166 64.4932C58.9554 64.6211 59.6175 64.5554 60.2192 64.3045C60.8209 64.0535 61.3352 63.6285 61.697 63.0833C62.0588 62.538 62.252 61.8969 62.252 61.2411C62.2512 60.362 61.904 59.519 61.2866 58.8974C60.6693 58.2757 59.8321 57.9261 58.959 57.9254Z"
    fill="black" />
</svg>
