<svg width="94" height="47" viewBox="0 0 94 47" fill="none" xmlns="http://www.w3.org/2000/svg">
  <title>Semicírculo verde</title>
  <path d="M47.0459 1.18646e-07C34.9547 -0.000856669 23.3262 4.63872 14.5688 12.9579C5.81133 21.2771 0.595789 32.6386 0.00224632 44.6894C-0.011239 44.9881 0.036099 45.2863 0.141397 45.5662C0.246695 45.846 0.407767 46.1016 0.614877 46.3176C0.821988 46.5336 1.07083 46.7054 1.34638 46.8227C1.62192 46.94 1.91843 47.0003 2.21799 47L90.3706 47C90.8695 47.0014 91.3634 46.8998 91.8211 46.7017C92.2789 46.5035 92.6906 46.2131 93.0305 45.8485C93.3704 45.484 93.631 45.0533 93.7961 44.5835C93.9612 44.1136 94.0272 43.6148 93.9899 43.1183C93.0121 31.3652 87.6428 20.4083 78.9471 12.4213C70.2514 4.43422 58.8646 0.00059754 47.0459 1.18646e-07Z" fill="#3CD3B6" />
</svg>
