<svg width="203" height="390" viewBox="0 0 203 390" fill="none" xmlns="http://www.w3.org/2000/svg">
  <title>Duas mãos segurando formas geométricas coloridas</title>
  <path
    d="M108.306 241H21.0313C19.6027 241.004 18.2031 240.595 17.0013 239.82C15.7996 239.046 14.8469 237.939 14.258 236.634C13.6692 235.329 13.4693 233.881 13.6825 232.465C13.8957 231.048 14.5129 229.724 15.4597 228.651L56.5137 181.776L102.764 128.944C103.459 128.148 104.316 127.51 105.277 127.074C106.238 126.637 107.28 126.411 108.335 126.411C109.39 126.411 110.433 126.637 111.394 127.074C112.355 127.51 113.212 128.148 113.907 128.944L160.11 181.799L201.164 228.675C202.111 229.747 202.728 231.071 202.941 232.487C203.155 233.903 202.955 235.35 202.367 236.655C201.779 237.96 200.827 239.066 199.626 239.841C198.425 240.616 197.027 241.027 195.599 241.023L108.306 241Z"
    fill="#FF5E33" />
  <path
    d="M106.154 36.8326C86.2471 36.8312 67.1024 44.5058 52.6844 58.2672C38.2664 72.0286 29.6797 90.8224 28.7026 110.757C28.6803 111.251 28.7583 111.744 28.9316 112.207C29.105 112.67 29.3702 113.093 29.7112 113.45C30.0521 113.807 30.4618 114.091 30.9155 114.285C31.3691 114.479 31.8573 114.579 32.3505 114.579L177.482 114.579C178.303 114.581 179.117 114.413 179.87 114.085C180.624 113.757 181.302 113.277 181.861 112.674C182.421 112.071 182.85 111.358 183.122 110.581C183.394 109.804 183.502 108.979 183.441 108.158C181.831 88.7161 172.991 70.5915 158.675 57.3795C144.358 44.1676 125.612 36.8336 106.154 36.8326Z"
    fill="#5C9DFF" />
  <path
    d="M106.359 358.424C135.132 358.424 158.456 335.039 158.456 306.192C158.456 277.344 135.132 253.959 106.359 253.959C77.5864 253.959 54.2616 277.344 54.2616 306.192C54.2616 335.039 77.5864 358.424 106.359 358.424Z"
    fill="#3CD3B6" />
  <path
    d="M185.769 63.3165L185.669 63.1577C185.45 62.869 185.15 62.6521 184.807 62.5344L184.649 62.4874C184.418 62.4325 184.18 62.424 183.946 62.4624C183.712 62.5007 183.489 62.5852 183.288 62.7108C182.924 62.9225 174.139 67.8206 152.597 66.4329C141.896 65.9486 131.314 63.9735 121.156 60.5646C117.417 59.306 113.744 57.8557 110.153 56.2192C108.283 55.4019 106.635 54.6963 105.291 54.2318C104.349 53.8879 103.361 53.6896 102.359 53.6438C96.3534 53.4968 91.9255 53.5673 88.0195 53.6438C81.5586 53.8688 75.09 53.6192 68.6655 52.897C64.9646 52.5004 61.3147 51.7201 57.7745 50.5685C51.9507 48.6046 47.8805 45.6293 46.0154 41.9542C45.2502 40.4335 44.8643 38.7493 44.8909 37.0462C44.9174 35.343 45.3556 33.6718 46.1679 32.1757L46.2852 31.964L46.4729 31.8112L48.6018 30.1471L48.7602 30.0177L48.9596 29.9531C53.7101 28.4125 64.4252 30.2588 70.8296 31.3643H70.9176C75.0469 32.236 79.2492 32.7144 83.4684 32.7931C96.1023 31.8775 108.597 29.5704 120.728 25.9135C121.181 25.7689 121.559 25.4502 121.779 25.0271C121.999 24.604 122.042 24.1109 121.901 23.6555C121.756 23.2009 121.439 22.8221 121.017 22.6017C120.595 22.3814 120.103 22.3374 119.649 22.4795C107.804 26.0245 95.6131 28.2778 83.2865 29.2004H83.1517C79.2072 29.0533 75.2828 28.5654 71.422 27.7422L70.4836 27.5834C66.1495 26.7568 61.7737 26.1679 57.3757 25.8194L54.2204 25.6371L56.7305 23.7084C68.0966 15.0001 83.2396 4.45717 90.8405 3.68689C99.3562 2.75784 125.443 10.7429 145.87 17.6344C159.793 22.3384 172.89 27.1189 180.508 30.0413H180.579C181.006 30.1869 181.473 30.1659 181.886 29.9825C182.32 29.7844 182.66 29.4233 182.831 28.977C182.917 28.7557 182.958 28.5193 182.951 28.2819C182.944 28.0444 182.889 27.8108 182.79 27.5952C182.591 27.1584 182.229 26.8181 181.781 26.6485H181.734C177.705 25.1197 163.395 19.7571 146.762 14.1475C117.127 4.15141 97.6378 -0.699629 90.4006 0.0824171C82.9816 0.887984 67.2579 10.5842 47.2588 26.6191L47.118 26.7367L46.948 26.8014C45.4954 27.3526 44.2606 28.3616 43.429 29.6767L43.3235 29.8355L43.1769 29.9531C22.0927 47.2874 3.51875 65.986 1.7593 71.6367C1.28661 73.0209 1.11854 74.4913 1.26665 75.9468L1.3077 76.329L1.11416 76.6583C0.105202 78.3893 -0.234964 80.4314 0.158194 82.3972C0.367655 83.1601 0.745097 83.8662 1.26274 84.4636C1.78038 85.0609 2.42504 85.5343 3.14927 85.8488C3.65038 86.0813 4.16327 86.2874 4.68586 86.4662C8.46602 87.6085 12.4479 87.9178 16.3584 87.3728C20.2689 86.8277 24.0157 85.4413 27.3418 83.3086C30.5322 81.2447 33.9925 78.7575 38.1624 75.5293L37.0188 73.6595L40.0861 74.6943L42.0508 75.3588L41.3646 75.9468C41.8517 76.3935 42.4272 76.7321 43.0537 76.9405H43.1299C44.6215 77.3783 46.1889 77.4926 47.728 77.2757H47.7632C51.9859 76.817 60.0793 71.2898 70.1786 64.1103C73.3979 61.6877 76.75 59.4478 80.2192 57.4011L80.5007 57.2306H80.8292C82.9698 57.2306 85.1281 57.2306 88.0371 57.1894C91.685 57.1365 96.2479 57.0601 102.171 57.2247L103.755 57.2718L103.649 57.5834C104.083 57.7069 104.511 57.8362 104.934 57.9832C106.21 58.4144 107.455 58.935 108.658 59.5415C112.319 61.2054 116.062 62.6831 119.871 63.9691C130.336 67.496 141.24 69.5385 152.269 70.0373C173.887 71.3721 183.405 66.7445 185.112 65.8037H185.147C185.353 65.6792 185.532 65.5147 185.673 65.3198C185.814 65.125 185.915 64.9038 185.969 64.6693C186.024 64.4348 186.031 64.1917 185.991 63.9543C185.95 63.7169 185.863 63.49 185.734 63.287L185.769 63.3165ZM5.86469 76.6994C5.68957 76.6428 5.52507 76.5573 5.37791 76.4466L4.99083 76.1526L4.92632 75.6704C4.78021 74.6552 4.90153 73.6194 5.27821 72.6657C6.99074 67.162 24.1513 50.692 39.4234 37.6618L40.1565 38.5262L41.3294 38.4556C41.4878 40.2375 41.9918 41.9713 42.8132 43.5595C44.055 45.9169 45.8135 47.9614 47.9567 49.5395L49.2646 50.5038L47.9391 51.4505C39.8398 57.1542 34.9954 61.082 31.453 63.9515L30.8665 64.4337C27.0149 67.8613 22.7538 70.7963 18.1809 73.1714C11.5067 76.5936 7.43061 77.2345 5.86469 76.6994ZM40.8544 69.173L39.8808 69.8962C38.7078 70.7724 37.4704 71.6602 36.1918 72.6363C32.7022 75.2412 29.0954 77.9284 25.4826 80.251C18.8436 84.5317 10.973 84.7904 6.12861 83.1557C5.69837 83.0132 5.27726 82.8443 4.86767 82.65L4.66826 82.5795L5.27821 80.3392C8.50974 81.0801 13.4245 79.7982 19.8875 76.523L19.9696 76.476C24.7273 74.0143 29.1634 70.9728 33.1773 67.4207L33.3122 67.3149C37.2416 64.0926 42.5845 59.7061 52.3788 52.9205L52.9184 52.5442L53.5049 52.8088C54.5547 53.2792 55.5986 53.6849 56.6953 54.0554L58.7539 54.7433L61.1585 55.5548L58.9826 56.866C55.8918 58.73 50.3848 62.0816 48.2148 63.5987C46.0448 65.1157 43.5053 67.0914 40.8251 69.173H40.8544ZM71.4865 58.8947L68.1787 61.1526L68.1142 61.1996C59.5398 67.2855 50.8891 73.2478 47.5051 73.6889C46.8654 73.8256 46.2078 73.8574 45.558 73.7829L45.3293 74.2416L44.3616 73.9123L43.5287 73.6359L41.4585 72.9127L43.1827 71.5662C45.6753 69.6199 48.0916 67.7441 50.1678 66.3153C53.1002 64.2337 62.5308 58.6242 66.0791 56.5132L66.3723 56.3427L66.7242 56.131L67.1289 56.1898L68.3019 56.3486L70.9528 56.7426L73.8852 57.1718L71.4865 58.8947Z"
    fill="#353535" />
  <path
    d="M9.07879 326.684L9.18436 326.842C9.40289 327.132 9.70327 327.349 10.0465 327.466L10.2048 327.513C10.6701 327.62 11.1588 327.54 11.5655 327.289C11.9291 327.078 20.7147 322.174 42.2562 323.567C52.9484 324.056 63.5206 326.035 73.6684 329.447C77.4065 330.711 81.0786 332.164 84.6708 333.799C86.5417 334.61 88.1897 335.321 89.5328 335.78C90.4656 336.121 91.4442 336.319 92.4359 336.368C98.4415 336.509 102.869 336.439 106.775 336.368C113.236 336.141 119.705 336.39 126.129 337.115C129.84 337.498 133.5 338.271 137.05 339.42C142.879 341.384 146.944 344.365 148.815 348.04C149.58 349.561 149.966 351.245 149.939 352.948C149.913 354.651 149.474 356.323 148.662 357.819L148.545 358.03L148.351 358.177L146.252 359.859L146.088 359.988L145.888 360.053C141.138 361.594 130.423 359.747 124.024 358.642H123.936C119.807 357.77 115.604 357.292 111.385 357.213C98.7508 358.125 86.2554 360.432 74.1258 364.093C73.9031 364.163 73.6965 364.277 73.5183 364.429C73.3401 364.58 73.1937 364.766 73.0878 364.975C72.8711 365.398 72.829 365.89 72.9705 366.345C73.1147 366.799 73.4325 367.178 73.8545 367.398C74.2765 367.619 74.7683 367.663 75.2225 367.521C87.0669 363.976 99.2581 361.722 111.585 360.8H111.714C115.658 360.948 119.582 361.434 123.443 362.252L124.376 362.417C128.71 363.24 133.086 363.829 137.484 364.181L140.645 364.363L138.152 366.327C126.786 375.035 111.643 385.578 104.042 386.319C95.5266 387.254 69.4398 379.263 49.0125 372.378C35.0894 367.673 21.9932 362.893 14.4099 359.965H14.3396C13.911 359.821 13.4441 359.844 13.0317 360.029C12.7071 360.176 12.4334 360.417 12.245 360.72C12.0566 361.023 11.9621 361.375 11.9734 361.732C11.9847 362.089 12.1013 362.434 12.3085 362.725C12.5156 363.015 12.8041 363.237 13.1373 363.363H13.1842C17.1781 364.875 31.5001 370.237 48.1387 375.841C77.7679 385.837 97.2568 390.694 104.494 389.912C111.913 389.106 127.643 379.434 147.642 363.369L147.782 363.258L147.953 363.193C149.403 362.638 150.637 361.63 151.471 360.318L151.571 360.159L151.718 360.041C172.831 342.707 191.411 324.008 193.153 318.358C193.626 316.971 193.794 315.499 193.646 314.042L193.605 313.665L193.798 313.33C194.803 311.6 195.145 309.562 194.76 307.597C194.547 306.838 194.167 306.136 193.648 305.543C193.13 304.95 192.486 304.48 191.763 304.169C191.261 303.933 190.746 303.727 190.221 303.552C186.44 302.408 182.457 302.098 178.545 302.643C174.633 303.188 170.885 304.575 167.559 306.709C164.368 308.773 160.914 311.26 156.738 314.488L157.911 316.358L154.838 315.323L152.873 314.659L153.559 314.071C153.071 313.63 152.499 313.294 151.876 313.083H151.8C150.308 312.646 148.741 312.531 147.202 312.748H147.161C142.944 313.201 134.845 318.734 124.751 325.913C121.529 328.335 118.175 330.575 114.705 332.623L114.423 332.793H114.095C111.954 332.764 109.802 332.793 106.887 332.828C103.239 332.887 98.6761 332.958 92.7526 332.793L91.1691 332.752L91.2746 332.44C90.8465 332.317 90.4184 332.182 89.9961 332.04C88.7194 331.61 87.4748 331.09 86.2719 330.482C82.6102 328.819 78.8677 327.342 75.0583 326.055C64.5916 322.529 53.6854 320.484 42.6551 319.98C21.0431 318.652 11.5244 323.279 9.8119 324.22H9.78257C9.57706 324.342 9.39805 324.505 9.25604 324.698C9.11403 324.891 9.0119 325.11 8.95563 325.343C8.82633 325.789 8.87033 326.268 9.07879 326.684ZM189.012 313.301C189.189 313.357 189.356 313.443 189.505 313.554L189.886 313.848L189.951 314.33C190.089 315.347 189.96 316.383 189.575 317.334C187.857 322.832 170.702 339.308 155.43 352.338L154.691 351.474L153.518 351.545C153.364 349.762 152.866 348.027 152.052 346.435C150.804 344.076 149.04 342.032 146.891 340.455L145.571 339.485L146.909 338.544C155.008 332.84 159.858 328.912 163.395 326.043L163.981 325.561C167.835 322.131 172.101 319.196 176.679 316.823C183.341 313.407 187.417 312.76 189.012 313.301ZM154.023 320.827L154.955 320.104C156.157 319.234 157.366 318.34 158.65 317.37C162.14 314.765 165.746 312.078 169.353 309.726C175.992 305.451 183.869 305.192 188.707 306.827C189.138 306.969 189.559 307.138 189.968 307.332L190.168 307.397L189.534 309.661C186.303 308.92 181.382 310.202 174.919 313.477L174.837 313.518C170.082 315.984 165.648 319.027 161.635 322.579L161.5 322.691C157.6 325.89 152.263 330.271 142.463 337.05L141.923 337.427L141.337 337.156C140.287 336.692 139.237 336.286 138.141 335.915L136.088 335.221L133.683 334.41L135.859 333.099C138.944 331.241 144.451 327.889 146.627 326.372C148.803 324.855 151.342 322.909 154.023 320.827ZM123.391 331.105L126.675 328.836L126.734 328.789C135.308 322.715 143.959 316.746 147.343 316.311C147.984 316.174 148.644 316.143 149.296 316.217L149.518 315.759L150.492 316.082L151.313 316.347L153.383 317.04L151.665 318.387C149.167 320.339 146.756 322.209 144.674 323.644C141.742 325.725 132.311 331.329 128.769 333.44L128.475 333.616L128.123 333.828L127.719 333.769L126.546 333.604L123.895 333.216L120.963 332.781L123.391 331.105Z"
    fill="#353535" />
</svg>
