<svg width="66" height="66" viewBox="0 0 66 66" fill="none" xmlns="http://www.w3.org/2000/svg">
  <title>Cometa</title>
  <desc>Logo iconográgico da iniciativa Cometa</desc>
  <path
    d="M43.995 2.60115L43.9949 2.60112C31.8508 -1.48267 19.2965 1.28315 10.4258 9.98364C1.55513 18.6841 -1.45196 31.1844 2.38676 43.4034L2.38686 43.4037C3.85236 48.0468 6.39343 52.2784 9.80331 55.7542C13.2131 59.2299 17.3953 61.8517 22.0098 63.4064C25.5777 64.6159 29.3182 65.2385 33.0856 65.25L33.0873 65.25C37.4309 65.2341 41.7265 64.342 45.7171 62.6269C49.7076 60.9119 53.311 58.4093 56.3113 55.2689C59.3117 52.1286 61.6473 48.4151 63.1783 44.3509C64.7086 40.2886 65.4035 35.9595 65.2217 31.6224C65.2225 31.4731 65.2139 31.324 65.1961 31.1757C65.027 28.2642 64.4971 25.3849 63.6183 22.6039C62.1535 17.9605 59.6127 13.7286 56.2028 10.2527C52.7928 6.77672 48.61 4.15508 43.995 2.60115ZM6.70243 42.0338C6.01646 39.8598 5.57446 37.6165 5.3844 35.3454H30.7347V60.623C28.2527 60.4179 25.8044 59.9122 23.4438 59.1167C19.5051 57.7883 15.9359 55.5487 13.0268 52.5801C10.1176 49.6116 7.95069 45.9982 6.70248 42.0339L6.70243 42.0338ZM47.5036 13.3967L47.5036 13.3966C47.0004 12.925 46.3389 12.659 45.6493 12.651C44.9597 12.6429 44.2921 12.8935 43.7781 13.3533L43.7772 13.354C40.0219 16.7434 35.4077 20.8275 33.1776 22.7165C30.9436 20.8233 26.3412 16.7443 22.5948 13.3784C22.0824 12.9171 21.4166 12.6633 20.7272 12.6663C20.0378 12.6693 19.3742 12.929 18.8659 13.3947L18.865 13.3956L6.46855 24.871C8.16892 19.3672 11.5416 14.52 16.1284 11.01C20.9533 7.31784 26.8556 5.30876 32.9313 5.29047C36.2033 5.29684 39.4524 5.8357 42.5513 6.88592L42.5517 6.88607C46.4891 8.21234 50.0576 10.4495 52.9668 13.4155C55.8759 16.3814 58.0434 19.9923 59.2929 23.9542L59.2932 23.9552C59.3653 24.1805 59.4359 24.4137 59.5043 24.6518L47.5036 13.3967ZM35.2631 35.3577H60.6277C60.0666 41.8836 57.2133 48.0039 52.5688 52.6314C47.9241 57.2591 41.7924 60.0903 35.2631 60.6281V35.3577ZM33.1775 27.8563C33.4275 27.8563 33.6601 27.8553 34.0369 27.673C34.3919 27.5014 34.8767 27.1688 35.6664 26.535C37.2349 25.2763 40.0692 22.7766 45.5945 17.8155L59.4925 30.8323H6.69773L20.762 17.8049C26.2867 22.7714 29.1206 25.2737 30.6889 26.5337C31.4784 27.1681 31.9632 27.501 32.3181 27.6728C32.6949 27.8553 32.9276 27.8563 33.1775 27.8563Z"
    fill="#0066FF" stroke="#0066FF" stroke-width="0.5" />
</svg>
