<svg width="381" height="392" viewBox="0 0 381 392" fill="none" xmlns="http://www.w3.org/2000/svg">
  <title>Padrão com formas geométrica coloridas</title>
  <path
    d="M172.149 16.0942L196.288 43.1159L226.717 77.1803C227.508 78.0674 228.478 78.777 229.563 79.2629C230.647 79.7488 231.822 80 233.01 80C234.199 80 235.374 79.7488 236.458 79.2629C237.543 78.777 238.513 78.0674 239.304 77.1803L269.742 43.1159L275.5 36.6735L281.258 43.1159L311.687 77.1803C312.48 78.0664 313.451 78.7751 314.536 79.2603C315.622 79.7455 316.797 79.9962 317.985 79.9962C319.174 79.9962 320.349 79.7455 321.434 79.2603C322.519 78.7751 323.49 78.0664 324.284 77.1803L354.712 43.1159L378.851 16.0942C379.938 14.877 380.649 13.3712 380.9 11.7583C381.15 10.1453 380.929 8.49429 380.263 7.00427C379.598 5.51427 378.515 4.24895 377.147 3.36099C375.779 2.47303 374.183 2.00037 372.553 2L178.439 1.99998C176.809 2.002 175.214 2.47587 173.848 3.36447C172.481 4.25307 171.4 5.51848 170.735 7.00817C170.07 8.49785 169.85 10.1482 170.101 11.7603C170.352 13.3725 171.063 14.8776 172.149 16.0942Z"
    fill="#3CD3B6" />
  <path
    d="M301.851 259.906L277.712 232.884L247.283 198.82C246.492 197.933 245.522 197.223 244.437 196.737C243.353 196.251 242.178 196 240.99 196C239.801 196 238.626 196.251 237.542 196.737C236.457 197.223 235.487 197.933 234.696 198.82L204.258 232.884L198.5 239.326L192.742 232.884L162.313 198.82C161.52 197.934 160.549 197.225 159.464 196.74C158.378 196.255 157.203 196.004 156.015 196.004C154.826 196.004 153.651 196.255 152.566 196.74C151.481 197.225 150.51 197.934 149.717 198.82L119.288 232.884L95.149 259.906C94.0625 261.123 93.351 262.629 93.1004 264.242C92.8498 265.855 93.0707 267.506 93.7366 268.996C94.4024 270.486 95.4847 271.751 96.8529 272.639C98.221 273.527 99.8166 274 101.447 274L295.561 274C297.191 273.998 298.786 273.524 300.153 272.636C301.519 271.747 302.6 270.482 303.265 268.992C303.93 267.502 304.15 265.852 303.899 264.24C303.648 262.628 302.937 261.122 301.851 259.906Z"
    fill="#3CD3B6" />
  <path
    d="M-5.49456 85L59.4896 85C60.549 85.0014 61.5856 85.3075 62.4756 85.8817C63.3656 86.4559 64.0713 87.2739 64.5085 88.2381C64.9456 89.2022 65.0956 90.2717 64.9407 91.3187C64.7857 92.3658 64.3323 93.3461 63.6346 94.1426L33.085 128.92L-1.34951 168.126C-1.86736 168.715 -2.50493 169.187 -3.2197 169.51C-3.93448 169.833 -4.71001 170 -5.49457 170C-6.27912 170 -7.05466 169.833 -7.76942 169.51C-8.4842 169.187 -9.12178 168.715 -9.63963 168.126L-44.0741 128.92L-74.6238 94.1426C-75.3254 93.3474 -75.7822 92.3666 -75.9393 91.3182C-76.0964 90.2698 -75.947 89.1984 -75.5092 88.2328C-75.0714 87.2672 -74.3638 86.4484 -73.4714 85.8749C-72.579 85.3014 -71.5398 84.9976 -70.4787 85L-5.49456 85Z"
    fill="#3CD3B6" />
  <path
    d="M258.505 291L323.49 291C324.549 291.001 325.586 291.308 326.476 291.882C327.366 292.456 328.071 293.274 328.508 294.238C328.946 295.202 329.096 296.272 328.941 297.319C328.786 298.366 328.332 299.346 327.635 300.143L297.085 334.92L262.65 374.126C262.133 374.715 261.495 375.187 260.78 375.51C260.066 375.833 259.29 376 258.505 376C257.721 376 256.945 375.833 256.231 375.51C255.516 375.187 254.878 374.715 254.36 374.126L219.926 334.92L189.376 300.143C188.675 299.347 188.218 298.367 188.061 297.318C187.904 296.27 188.053 295.198 188.491 294.233C188.929 293.267 189.636 292.448 190.529 291.875C191.421 291.301 192.46 290.998 193.521 291L258.505 291Z"
    fill="#0066FF" />
  <path
    d="M81.9244 77C101.219 77.0001 119.775 69.596 133.75 56.3209C147.725 43.0458 156.048 24.9165 156.997 5.68677C157.018 5.21003 156.941 4.73402 156.773 4.28748C156.604 3.84092 156.347 3.43308 156.016 3.08856C155.685 2.74403 155.287 2.46996 154.847 2.28287C154.407 2.09578 153.934 1.99956 153.456 2.00002L12.7837 2.00001C11.9898 1.99794 11.204 2.15941 10.4755 2.47431C9.74702 2.78923 9.09151 3.25079 8.55004 3.83011C8.00855 4.40943 7.59275 5.09406 7.32863 5.84111C7.06452 6.58817 6.9578 7.38158 7.01513 8.17169C8.56743 26.9309 17.1322 44.4219 31.0091 57.1723C44.886 69.9228 63.0604 77.0003 81.9244 77Z"
    fill="#0066FF" />
  <path
    d="M-4.92435 296C-24.2192 296 -42.7751 303.404 -56.75 316.679C-70.7248 329.954 -79.0482 348.083 -79.9967 367.313C-80.0175 367.79 -79.9413 368.266 -79.7726 368.713C-79.604 369.159 -79.3465 369.567 -79.0156 369.911C-78.6848 370.256 -78.2873 370.53 -77.8474 370.717C-77.4074 370.904 -76.9341 371 -76.4559 371L64.2164 371C65.0103 371.002 65.7961 370.841 66.5246 370.526C67.253 370.211 67.9085 369.749 68.45 369.17C68.9915 368.591 69.4073 367.906 69.6714 367.159C69.9355 366.412 70.0423 365.618 69.9849 364.828C68.4326 346.069 59.8679 328.578 45.991 315.828C32.114 303.077 13.9396 296 -4.92435 296Z"
    fill="#3CD3B6" />
  <path
    d="M317 212.438C317 228.26 323.121 243.476 334.095 254.935C345.069 266.394 360.056 273.22 375.952 273.997C376.346 274.014 376.74 273.952 377.109 273.814C377.478 273.675 377.815 273.464 378.1 273.193C378.385 272.921 378.612 272.596 378.766 272.235C378.921 271.874 379 271.486 379 271.094L379 155.743C379.002 155.092 378.868 154.447 378.608 153.85C378.348 153.252 377.966 152.715 377.487 152.271C377.008 151.827 376.442 151.486 375.825 151.269C375.207 151.053 374.551 150.965 373.898 151.012C358.39 152.285 343.931 159.308 333.391 170.687C322.851 182.066 317 196.97 317 212.438Z"
    fill="#FF5E33" />
  <path
    d="M199 163.77L199 91.162C199 89.5277 198.35 87.9604 197.194 86.8048C196.038 85.6492 194.47 85 192.836 85L120.183 85C119.331 84.9974 118.488 85.1713 117.707 85.5107C116.926 85.8501 116.223 86.3477 115.644 86.972C115.065 87.5963 114.622 88.3339 114.342 89.1381C114.062 89.9423 113.952 90.7958 114.019 91.6446C115.602 111.895 124.367 130.914 138.734 145.276C153.101 159.639 172.127 168.401 192.384 169.983C193.235 170.046 194.089 169.931 194.894 169.647C195.698 169.362 196.435 168.913 197.056 168.329C197.678 167.745 198.172 167.038 198.507 166.253C198.841 165.469 199.009 164.623 199 163.77Z"
    fill="#FF5E33" />
  <path
    d="M-4.99963 195.23L-4.99963 267.838C-4.99963 269.472 -4.35021 271.04 -3.19424 272.195C-2.03827 273.351 -0.470438 274 1.16435 274L73.8171 274C74.6688 274.003 75.5119 273.829 76.293 273.489C77.0742 273.15 77.7765 272.652 78.3557 272.028C78.9349 271.404 79.3783 270.666 79.658 269.862C79.9378 269.058 80.0478 268.204 79.981 267.355C78.3978 247.105 69.6331 228.086 55.2658 213.724C40.8985 199.361 21.873 190.599 1.61638 189.017C0.76537 188.954 -0.0893674 189.069 -0.893725 189.353C-1.69808 189.638 -2.43454 190.087 -3.05645 190.671C-3.67837 191.255 -4.1722 191.962 -4.50668 192.747C-4.84117 193.531 -5.00904 194.377 -4.99963 195.23Z"
    fill="#0066FF" />
  <path
    d="M275.5 89C252.58 89 234 107.804 234 131C234 154.196 252.58 173 275.5 173C298.42 173 317 154.196 317 131C317 107.804 298.42 89 275.5 89Z"
    fill="#0066FF" />
  <path
    d="M128.5 288C105.58 288 87 306.58 87 329.5C87 352.42 105.58 371 128.5 371C151.42 371 170 352.42 170 329.5C170 306.58 151.42 288 128.5 288Z"
    fill="#FF5E33" />
</svg>
