<svg width="97" height="142" viewBox="0 0 97 142" fill="none" xmlns="http://www.w3.org/2000/svg">
  <title>Caneta bico de pena desenhando vetores em cima de formas geométricas coloridas</title>
  <path
    d="M95.6528 136.503L86.2233 125.96L74.3361 112.668C74.0266 112.322 73.6476 112.045 73.2238 111.856C72.8001 111.667 72.3412 111.569 71.877 111.569C71.4129 111.569 70.954 111.667 70.5302 111.856C70.1065 112.045 69.7275 112.322 69.418 112.668L57.5308 125.96L55.2829 128.475L53.0325 125.96L41.1557 112.668C40.8462 112.322 40.4672 112.045 40.0435 111.856C39.6198 111.667 39.1609 111.569 38.6967 111.569C38.2326 111.569 37.7736 111.667 37.3499 111.856C36.9262 112.045 36.5472 112.322 36.2377 112.668L24.34 125.96L14.9105 136.503C14.483 136.977 14.2024 137.566 14.1028 138.197C14.0032 138.827 14.0888 139.474 14.3493 140.057C14.6098 140.64 15.0339 141.135 15.5703 141.482C16.1066 141.828 16.7321 142.012 17.3708 142.01H93.1951C93.8341 142.013 94.46 141.829 94.9967 141.483C95.5333 141.136 95.9577 140.641 96.218 140.057C96.4784 139.474 96.5636 138.827 96.4632 138.196C96.3629 137.565 96.0813 136.977 95.6528 136.503Z"
    fill="#5C9DFF" />
  <path
    d="M0.500002 86.9918V66.2359C0.499485 65.8972 0.596704 65.5656 0.779993 65.2808C0.963283 64.9961 1.22486 64.7702 1.53333 64.6304C1.84181 64.4906 2.18408 64.4427 2.51908 64.4926C2.85408 64.5424 3.16758 64.6879 3.42197 64.9114L14.5433 74.6705L27.0784 85.67C27.2667 85.8352 27.4177 86.0386 27.5211 86.2668C27.6245 86.495 27.678 86.7426 27.678 86.9931C27.678 87.2437 27.6245 87.4913 27.5211 87.7195C27.4177 87.9476 27.2667 88.1511 27.0784 88.3163L14.5433 99.3158L3.42197 109.075C3.16721 109.297 2.85384 109.442 2.51923 109.491C2.18462 109.54 1.84291 109.492 1.53487 109.352C1.22683 109.213 0.965475 108.988 0.781978 108.703C0.598482 108.419 0.500596 108.089 0.500002 107.75V86.9918Z"
    fill="#FF5E33" />
  <path
    d="M56.4266 74.1223C76.8969 74.1223 93.4915 57.5295 93.4915 37.0612C93.4915 16.5928 76.8969 0 56.4266 0C35.9562 0 19.3616 16.5928 19.3616 37.0612C19.3616 57.5295 35.9562 74.1223 56.4266 74.1223Z"
    fill="#3CD3B6" />
  <path
    d="M56.6889 54.0063C56.9658 53.6735 57.1212 53.2564 57.1295 52.8235C57.1391 52.5607 57.0957 52.2987 57.0018 52.0531C56.9078 51.8074 56.7653 51.5833 56.5828 51.394C56.4003 51.2046 56.1815 51.0541 55.9394 50.9512C55.6974 50.8484 55.4371 50.7953 55.1741 50.7953C54.9111 50.7953 54.6508 50.8484 54.4088 50.9512C54.1667 51.0541 53.9479 51.2046 53.7654 51.394C53.5829 51.5833 53.4404 51.8074 53.3464 52.0531C53.2525 52.2987 53.2091 52.5607 53.2187 52.8235C53.2267 53.256 53.3811 53.6729 53.6567 54.0063L36.5525 84.6603C36.4638 84.8198 36.4143 84.998 36.4079 85.1804C36.4015 85.3627 36.4385 85.544 36.5157 85.7093C36.5944 85.8772 44.1957 102.29 44.0567 112.914H42.239C41.9329 112.914 41.6394 113.036 41.4229 113.252C41.2065 113.469 41.0849 113.762 41.0849 114.068V120.602C41.0849 120.908 41.2065 121.201 41.4229 121.418C41.6394 121.634 41.9329 121.756 42.239 121.756H43.1597V127.135C43.1604 127.44 43.2823 127.733 43.4986 127.949C43.715 128.165 44.0081 128.286 44.3138 128.286H66.0318C66.3374 128.286 66.6306 128.165 66.8469 127.949C67.0633 127.733 67.1852 127.44 67.1859 127.135V121.758H68.1118C68.4174 121.757 68.7103 121.636 68.9262 121.419C69.142 121.203 69.2633 120.91 69.2633 120.604V114.071C69.2633 113.765 69.142 113.472 68.9262 113.256C68.7103 113.04 68.4174 112.918 68.1118 112.917H66.2915C66.1551 102.293 73.7538 85.8798 73.8325 85.712C73.9097 85.5466 73.9467 85.3654 73.9403 85.183C73.9339 85.0006 73.8844 84.8224 73.7957 84.6629L56.6889 54.0063ZM55.1728 77.4374C56.3199 77.4369 57.4414 77.7765 58.3954 78.4134C59.3495 79.0502 60.0932 79.9557 60.5326 81.0152C60.9719 82.0748 61.0871 83.2408 60.8636 84.3658C60.6402 85.4908 60.088 86.5243 59.2771 87.3355C58.4661 88.1468 57.4328 88.6993 56.3078 88.9233C55.1827 89.1472 54.0166 89.0326 52.9567 88.5937C51.8969 88.1549 50.991 87.4117 50.3536 86.458C49.7163 85.5044 49.3761 84.3831 49.3761 83.2361C49.3775 81.6991 49.9885 80.2254 51.0753 79.1383C52.162 78.0512 53.6356 77.4395 55.1728 77.4374ZM64.8777 125.983H45.4679V121.758H64.8777V125.983ZM66.9577 119.453H43.3931V115.225H66.9577V119.453ZM63.9754 112.92H46.4016C46.5092 102.746 40.2298 88.2901 38.8633 85.274L54.0082 58.0898V75.2501C51.979 75.5419 50.1356 76.5915 48.8493 78.1877C47.563 79.7838 46.9291 81.808 47.0754 83.8527C47.2217 85.8974 48.1373 87.8107 49.6377 89.2075C51.1382 90.6044 53.1122 91.3809 55.1623 91.3809C57.2124 91.3809 59.1864 90.6044 60.6869 89.2075C62.1873 87.8107 63.1029 85.8974 63.2492 83.8527C63.3955 81.808 62.7616 79.7838 61.4753 78.1877C60.189 76.5915 58.3456 75.5419 56.3164 75.2501V58.0898L71.4875 85.274C70.1236 88.2874 63.8416 102.746 63.9518 112.92H63.9754Z"
    fill="black" />
  <path
    d="M89.9269 23.8113C90.9186 23.8135 91.8908 23.5353 92.7313 23.009C93.5718 22.4826 94.2464 21.7294 94.6774 20.8362C95.1083 19.9431 95.278 18.9463 95.1669 17.9609C95.0558 16.9755 94.6684 16.0415 94.0495 15.2667C93.4305 14.4919 92.6051 13.9078 91.6685 13.5817C90.7319 13.2556 89.7222 13.2008 88.7558 13.4237C87.7895 13.6466 86.9057 14.138 86.2066 14.8413C85.5074 15.5447 85.0213 16.4312 84.8043 17.3989H60.0751V14.4457C60.0744 14.1399 59.9526 13.8468 59.7363 13.6305C59.52 13.4142 59.2268 13.2924 58.921 13.2917H51.1885C50.8824 13.2917 50.5889 13.4133 50.3725 13.6297C50.156 13.8461 50.0344 14.1397 50.0344 14.4457V17.3989H25.5492C25.2654 16.1354 24.5257 15.0209 23.4714 14.2688C22.4172 13.5167 21.1226 13.1798 19.8354 13.3225C18.5483 13.4652 17.359 14.0776 16.4952 15.0424C15.6313 16.0072 15.1537 17.2566 15.1537 18.5515C15.1537 19.8465 15.6313 21.0959 16.4952 22.0607C17.359 23.0255 18.5483 23.6379 19.8354 23.7806C21.1226 23.9233 22.4172 23.5864 23.4714 22.8342C24.5257 22.0821 25.2654 20.9677 25.5492 19.7042H42.5433C36.9635 22.0959 32.18 26.0264 28.7521 31.0364C25.3242 36.0463 23.3935 41.9284 23.1859 47.9951H20.4344C20.1288 47.9951 19.8356 48.1163 19.6193 48.3322C19.4029 48.548 19.281 48.8409 19.2803 49.1465V56.8807C19.281 57.1866 19.4028 57.4797 19.6191 57.696C19.8354 57.9122 20.1285 58.034 20.4344 58.0347H28.1669C28.4728 58.034 28.7659 57.9122 28.9822 57.696C29.1985 57.4797 29.3203 57.1866 29.321 56.8807V49.1569C29.3203 48.8513 29.1984 48.5585 28.982 48.3426C28.7657 48.1268 28.4725 48.0056 28.1669 48.0056H25.4915C25.7409 41.2195 28.3155 34.7253 32.7838 29.6114C37.2521 24.4975 43.3425 21.0747 50.0344 19.9166V22.1774C50.0351 22.483 50.157 22.7758 50.3734 22.9917C50.5897 23.2075 50.8829 23.3287 51.1885 23.3287H58.921C59.2266 23.3287 59.5198 23.2075 59.7361 22.9917C59.9525 22.7758 60.0744 22.483 60.0751 22.1774V19.9166C66.7663 21.072 72.8568 24.4926 77.3254 29.6049C81.7939 34.7171 84.3687 41.2101 84.618 47.9951H81.9531C81.647 47.9951 81.3535 48.1167 81.137 48.3331C80.9206 48.5495 80.799 48.843 80.799 49.1491V56.8807C80.799 57.1868 80.9206 57.4803 81.137 57.6967C81.3535 57.9131 81.647 58.0347 81.9531 58.0347H89.6803C89.9862 58.034 90.2793 57.9122 90.4956 57.696C90.7119 57.4797 90.8337 57.1866 90.8344 56.8807V49.1569C90.8351 49.0048 90.8058 48.8541 90.7481 48.7133C90.6905 48.5726 90.6056 48.4446 90.4984 48.3366C90.3912 48.2287 90.2638 48.143 90.1234 48.0844C89.983 48.0258 89.8325 47.9954 89.6803 47.9951H86.9236C86.719 41.9267 84.7896 36.0421 81.3615 31.0304C77.9333 26.0187 73.1481 22.0872 67.5662 19.6963H84.8043C85.0664 20.86 85.716 21.9001 86.6467 22.6463C87.5774 23.3925 88.734 23.8005 89.9269 23.8035V23.8113ZM26.9918 55.7373H21.5754V50.3109H26.9918V55.7373ZM88.521 55.7373H83.1046V50.3109H88.5315L88.521 55.7373ZM89.9164 15.6102C90.5005 15.6102 91.0715 15.7834 91.5572 16.1079C92.0429 16.4324 92.4215 16.8936 92.645 17.4332C92.8686 17.9728 92.927 18.5666 92.8131 19.1395C92.6991 19.7123 92.4178 20.2385 92.0048 20.6515C91.5918 21.0645 91.0655 21.3458 90.4926 21.4597C89.9197 21.5737 89.3258 21.5152 88.7862 21.2917C88.2465 21.0682 87.7852 20.6896 87.4607 20.204C87.1362 19.7184 86.963 19.1474 86.963 18.5633C86.9616 18.1736 87.0373 17.7875 87.1857 17.4272C87.3341 17.0668 87.5524 16.7394 87.8278 16.4637C88.1033 16.188 88.4306 15.9695 88.7908 15.8208C89.151 15.6721 89.5371 15.596 89.9269 15.5971L89.9164 15.6102ZM20.4344 21.506C19.8498 21.5081 19.2778 21.3366 18.7907 21.0134C18.3037 20.6902 17.9235 20.2297 17.6983 19.6902C17.4732 19.1508 17.4132 18.5567 17.526 17.9832C17.6387 17.4096 17.9192 16.8824 18.3318 16.4684C18.7444 16.0543 19.2707 15.772 19.8439 15.6572C20.4171 15.5424 21.0114 15.6003 21.5517 15.8235C22.092 16.0467 22.5539 16.4252 22.8789 16.9111C23.2039 17.3969 23.3774 17.9683 23.3774 18.5528C23.3753 19.3336 23.0649 20.082 22.5138 20.635C21.9626 21.1881 21.2153 21.5011 20.4344 21.506ZM52.3505 21.0234V15.5971H57.7774V18.3588C57.7774 18.3771 57.7643 18.3929 57.7616 18.4112C57.759 18.4867 57.7643 18.5623 57.7774 18.6368V21.0287L52.3505 21.0234Z"
    fill="black" />
</svg>
