<svg width="169" height="37" viewBox="0 0 169 37" fill="none" xmlns="http://www.w3.org/2000/svg">
  <title>Cometa</title>
  <desc>Logo tipográfico da iniciativa Cometa</desc>
  <path
    d="M27.5578 34.157C24.9116 35.5204 21.9641 36.2107 18.981 36.1656C12.8914 36.1656 9.19698 34.1035 6.27449 31.3751C2.2656 27.5653 0.705879 23.2903 0.705879 18.2451C0.705879 12.0118 3.30753 7.53245 6.27449 4.81657C9.76877 1.57259 14.0794 0.283795 19.0223 0.283795C22.003 0.255864 24.9413 0.983042 27.5578 2.39615V10.2232C26.5214 9.02482 25.2375 8.06019 23.7925 7.39432C22.3475 6.72846 20.775 6.37683 19.1811 6.36312C12.1925 6.36312 7.67856 12.0212 7.67856 18.3583C7.67856 25.981 13.6125 30.102 19.432 30.102C20.9827 30.1044 22.5148 29.7675 23.9185 29.1154C25.3222 28.4633 26.5628 27.5121 27.5515 26.3299L27.5578 34.157Z"
    fill="#0066FF" />
  <path
    d="M53.7332 15.5041C54.933 16.6266 55.8888 17.9796 56.542 19.4803C57.1952 20.981 57.5321 22.5977 57.5321 24.2317C57.5321 25.8656 57.1952 27.4824 56.542 28.9831C55.8888 30.4837 54.933 31.8367 53.7332 32.9593C51.8082 34.7102 48.8952 36.1027 44.6258 36.1027C40.3565 36.1027 37.4467 34.7133 35.5185 32.9593C34.3194 31.8363 33.3644 30.4831 32.7117 28.9825C32.059 27.4819 31.7224 25.8654 31.7224 24.2317C31.7224 22.598 32.059 20.9815 32.7117 19.4809C33.3644 17.9803 34.3194 16.6271 35.5185 15.5041C37.4467 13.7501 40.3596 12.3607 44.6258 12.3607C48.892 12.3607 51.8082 13.7626 53.7332 15.5041ZM50.9759 24.2553C50.9759 23.0119 50.6033 21.7964 49.9052 20.7625C49.2071 19.7287 48.2148 18.9229 47.0539 18.447C45.893 17.9712 44.6156 17.8467 43.3832 18.0893C42.1508 18.3319 41.0188 18.9306 40.1302 19.8098C39.2417 20.6891 38.6366 21.8093 38.3915 23.0288C38.1464 24.2483 38.2722 25.5124 38.753 26.6611C39.2339 27.8099 40.0482 28.7917 41.093 29.4825C42.1378 30.1733 43.3661 30.542 44.6227 30.542C45.4584 30.5508 46.2875 30.3947 47.0615 30.0826C47.8355 29.7706 48.5388 29.309 49.1304 28.7248C49.722 28.1406 50.1899 27.4455 50.5067 26.6802C50.8236 25.9149 50.9831 25.0948 50.9759 24.2678V24.2553Z"
    fill="#0066FF" />
  <path
    d="M62.4244 13.0931H68.7776V15.6078C69.5616 14.5854 70.5769 13.759 71.7421 13.1951C72.9072 12.6312 74.1897 12.3454 75.4866 12.3607C80.2198 12.3607 82.0432 15.2966 82.615 16.4283C83.7077 14.6774 85.9441 12.3607 89.8481 12.3607C93.3424 12.3607 95.0514 13.9576 95.9377 15.0892C97.3926 16.9972 97.4974 18.9021 97.4974 21.376V35.3829H91.1442V23.24C91.1442 20.6121 90.5692 19.4271 90.1023 18.8612C89.7862 18.4868 89.3869 18.1898 88.9356 17.9935C88.4842 17.7972 87.9931 17.7069 87.5006 17.7296C85.7821 17.7296 84.6893 18.5029 84.0063 19.6848C83.1741 21.0239 83.1232 22.8282 83.1232 24.0101V35.3923H76.77V23.24C76.77 20.6121 76.1982 19.4271 75.7312 18.8612C75.4145 18.4868 75.0147 18.1898 74.5628 17.9935C74.1109 17.7972 73.6194 17.7069 73.1264 17.7296C71.411 17.7296 70.3183 18.5029 69.6321 19.6848C68.7999 21.0239 68.7459 22.8282 68.7459 24.0101V35.3923H62.3926L62.4244 13.0931Z"
    fill="#0066FF" />
  <path
    d="M125.652 29.1621C124.975 30.8092 122.424 36.1121 114.565 36.1121C110.925 36.1121 108.168 35.0842 105.928 32.9687C103.431 30.652 102.389 27.7664 102.389 24.2647C102.389 19.8356 104.21 17.1072 105.823 15.5135C108.479 12.9359 111.602 12.3701 114.308 12.3701C118.886 12.3701 121.541 14.1744 123.101 16.0258C125.496 18.8549 125.807 22.3598 125.807 24.7802V25.2957H108.946C108.946 26.6348 109.311 28.0776 110.039 29.0677C110.715 29.995 112.123 31.1801 114.565 31.1801C115.631 31.2142 116.686 30.9575 117.615 30.438C118.543 29.9185 119.309 29.1563 119.829 28.2348L125.652 29.1621ZM119.829 21.2816C119.628 20.0252 118.98 18.8811 118.002 18.055C117.025 17.229 115.781 16.7752 114.496 16.7752C113.21 16.7752 111.967 17.229 110.989 18.055C110.011 18.8811 109.363 20.0252 109.162 21.2816H119.829Z"
    fill="#0066FF" />
  <path
    d="M137.046 18.4495V35.3923H130.693V18.4495H128.193V13.1057H130.693V5.47357H137.046V13.0931H141.43V18.4369L137.046 18.4495Z"
    fill="#0066FF" />
  <path
    d="M162.024 13.0931H168.377V35.3923H162.024V32.5066C159.737 35.7538 156.719 36.1121 155.105 36.1121C148.184 36.1121 143.603 30.7683 143.603 24.2175C143.603 17.6164 148.133 12.3733 154.791 12.3733C156.51 12.3733 159.893 12.6876 162.024 15.9787V13.0931ZM150.159 24.2175C150.159 27.7696 152.764 30.5515 156.405 30.5515C160.045 30.5515 162.65 27.7633 162.65 24.2175C162.65 20.6718 160.048 17.9308 156.405 17.9308C152.761 17.9308 150.159 20.6655 150.159 24.2175Z"
    fill="#0066FF" />
</svg>
